<svg id="Capa_1" enable-background="new 0 0 512 512" height="512" viewBox="0 0 512 512" width="512" xmlns="http://www.w3.org/2000/svg"><g><g><g><path d="m199.474 145h-38.474c-8.284 0-15 6.716-15 15s6.716 15 15 15h23.474v165c0 8.284 6.716 15 15 15s15-6.716 15-15v-180c0-8.284-6.715-15-15-15z"/><path d="m365.786 281.662c.132-27.152-5.151-45.173-16.625-56.707-8.697-8.743-20.699-13.176-35.67-13.176-10.307 0-19.741 2.786-27.871 7.808v-49.567c0-8.284-6.716-15-15-15s-15 6.716-15 15v169.98c0 8.284 6.716 15 15 15s15-6.716 15-15v-58.349c0-23.476 11.461-39.872 27.871-39.872 9.044 0 12.551 2.473 14.402 4.333 3.666 3.685 8.011 12.828 7.893 35.46v.133l.214 58.35c.03 8.266 6.74 14.945 14.999 14.945h.057c8.284-.031 14.975-6.771 14.945-15.055z"/></g><g><path d="m275.393 481.172c-9.309.796-18.782 1.018-28.116.661-8.278-.318-15.247 6.134-15.565 14.412-.318 8.278 6.134 15.247 14.412 15.565 3.275.126 6.598.19 9.875.19 7.295 0 14.68-.315 21.951-.938 8.254-.706 14.372-7.97 13.666-16.224v-.001c-.705-8.252-7.968-14.371-16.223-13.665z"/><path d="m165.473 463.147c-7.592-3.315-16.434.151-19.749 7.743v.001c-3.315 7.592.152 16.434 7.743 19.749 9.699 4.235 19.771 7.902 29.937 10.898 7.946 2.342 16.286-2.201 18.629-10.147v-.001c2.342-7.946-2.201-16.286-10.147-18.629h-.001c-8.969-2.642-17.856-5.877-26.412-9.614z"/><path d="m474.585 198.431c2.102 8.013 10.302 12.805 18.315 10.703h.001c8.013-2.102 12.805-10.302 10.703-18.315-2.688-10.248-6.048-20.422-9.986-30.242v-.001c-3.084-7.689-11.816-11.422-19.505-8.339h-.001c-7.689 3.083-11.422 11.816-8.339 19.505 3.475 8.665 6.44 17.644 8.812 26.689z"/><path d="m511.991 253.816c-.071-8.284-6.844-14.942-15.127-14.871h-.001c-8.284.071-14.942 6.843-14.871 15.127.005.643.008 1.286.008 1.927 0 8.711-.508 17.512-1.509 26.157-.953 8.229 4.946 15.673 13.175 16.626l1.27.147c7.528.872 14.337-4.524 15.208-12.052 1.24-10.712 1.91-21.486 1.852-32.27-.001-.263-.003-.527-.005-.791z"/><path d="m467.177 336.671c-3.332 8.736-7.248 17.344-11.639 25.582v.001c-3.896 7.31-1.129 16.395 6.182 20.292l.001.001c7.31 3.896 16.395 1.129 20.292-6.182v-.001c4.978-9.34 9.417-19.098 13.195-29.002 2.952-7.74-.929-16.408-8.67-19.36h-.001c-7.741-2.953-16.408.928-19.36 8.669z"/><path d="m423.175 408.088c-2.384 2.615-4.863 5.212-7.369 7.718-4.115 4.115-8.43 8.113-12.824 11.883-6.287 5.395-7.01 14.864-1.615 21.151 5.395 6.287 14.864 7.01 21.151 1.616 4.97-4.265 9.849-8.786 14.5-13.438 2.832-2.832 5.633-5.766 8.328-8.722 5.581-6.123 5.141-15.61-.981-21.19-6.122-5.58-15.609-5.14-21.19.982z"/><path d="m356.198 458.648c-8.365 4.137-17.083 7.789-25.913 10.853-7.826 2.716-11.969 11.263-9.252 19.089v.001c2.716 7.826 11.263 11.969 19.089 9.252 10.008-3.474 19.892-7.614 29.375-12.304 7.426-3.673 10.468-12.67 6.795-20.095-3.671-7.426-12.668-10.469-20.094-6.796z"/></g></g><path d="m426.413 0c-8.284 0-15 6.716-15 15v37.663c-44.418-34.073-98.493-52.539-155.413-52.539-68.38 0-132.667 26.628-181.019 74.981-48.352 48.351-74.981 112.639-74.981 181.019s26.628 132.667 74.981 181.019c7.507 7.507 15.532 14.602 23.853 21.089 6.534 5.093 15.959 3.926 21.052-2.608s3.926-15.959-2.608-21.052c-7.352-5.731-14.446-12.003-21.084-18.642-42.686-42.686-66.194-99.44-66.194-159.806s23.508-117.12 66.194-159.806 99.44-66.194 159.806-66.194c46.926 0 91.664 14.211 129.313 40.587h-29.61c-8.284 0-15 6.716-15 15s6.716 15 15 15h70.71c8.284 0 15-6.716 15-15v-70.711c0-8.284-6.716-15-15-15z"/></g></svg>