<?xml version="1.0" encoding="UTF-8"?>
<svg xmlns="http://www.w3.org/2000/svg" xmlns:xlink="http://www.w3.org/1999/xlink" version="1.1" id="Capa_1" x="0px" y="0px" viewBox="0 0 512 512" style="enable-background:new 0 0 512 512;" xml:space="preserve" width="512" height="512">
<g>
	<line style="fill:none;stroke:#000000;stroke-width:30;stroke-miterlimit:10;" x1="294.436" y1="256" x2="493.804" y2="256"/>
	<line style="fill:none;stroke:#000000;stroke-width:30;stroke-miterlimit:10;" x1="256" y1="18.196" x2="256" y2="211"/>
	<polyline style="fill:none;stroke:#000000;stroke-width:30;stroke-linecap:square;stroke-miterlimit:10;" points="15,351 &#10;&#9;&#9;45.732,351 45.732,496.39 &#9;"/>
	<path style="fill:none;stroke:#000000;stroke-width:30;stroke-miterlimit:10;" d="M200.412,351h-67.358l-10.251,61.873l2.36,1.416&#10;&#9;&#9;c0,0,13.824-5.241,27.121-5.241c25.063,0,45.229,20.997,43.915,46.315c-1.186,22.848-20.134,41.167-43.008,41.628&#10;&#9;&#9;c-22.611,0.456-41.434-16.159-44.459-37.833"/>
	<path style="fill:none;stroke:#000000;stroke-width:30;stroke-miterlimit:10;" d="M256,497c133.101,0,241-107.899,241-241&#10;&#9;&#9;S389.101,15,256,15S15,122.899,15,256v15.021"/>
	
		<circle style="fill:none;stroke:#000000;stroke-width:30;stroke-linecap:square;stroke-miterlimit:10;" cx="256" cy="256" r="38.436"/>
	<line style="fill:none;stroke:#000000;stroke-width:30;stroke-miterlimit:10;" x1="85.587" y1="85.587" x2="135.32" y2="135.32"/>
	
		<line style="fill:none;stroke:#000000;stroke-width:30;stroke-miterlimit:10;" x1="426.413" y1="426.413" x2="376.68" y2="376.68"/>
	<line style="fill:none;stroke:#000000;stroke-width:30;stroke-miterlimit:10;" x1="256" y1="335.667" x2="256" y2="397"/>
	<g>
		<line style="fill:none;stroke:#000000;stroke-width:30;stroke-miterlimit:10;" x1="85.333" y1="256" x2="15" y2="256"/>
	</g>
</g>















</svg>
