<svg xmlns="http://www.w3.org/2000/svg" version="1.1" xmlns:xlink="http://www.w3.org/1999/xlink" width="512" height="512" x="0" y="0" viewBox="0 0 512 512" style="enable-background:new 0 0 512 512" xml:space="preserve" class=""><g><path d="M470.317 350.479 367.623 247.78 466.7 146.363c14.363-14.42 9.823-34.434-.043-44.288l-60.376-60.389c-10.771-10.771-30.688-13.644-44.329 0L262.916 143.07 161.532 41.683c-11.899-11.886-31.743-12.589-44.337.005L41.736 117.17c-10.084 10.057-14.354 30.005-.021 44.341l102.782 102.781-73.973 74.798-35.092 140.181 139.507-35.187 74.263-75.087 101.307 101.307c11.08 11.079 30.938 13.39 44.328.001l75.491-75.474c12.893-12.893 11.551-32.79-.011-44.352zm-367.819 15.973-7.469-7.621 78.438-79.71 7.459 7.46zm93.531-64.768 15.138 15.138-78.779 80.128-14.952-15.255zm-67.824 122.044-24.146 6.035L84.91 410.61l6.02-24.065zm19.119-11.538 78.893-80.319 7.631 7.631-79.041 80.323zM63.891 139.346l75.48-75.495 26.078 26.076-37.742 37.743 15.094 15.094 37.74-37.742 15.1 15.097-22.651 22.646 15.093 15.095 22.654-22.645 15.097 15.097-22.646 22.663 15.095 15.094 22.646-22.663 15.104 15.102-37.75 37.751 15.094 15.095 37.748-37.753 15.102 15.1-22.66 22.653 15.092 15.094 22.662-22.654 15.096 15.096-22.653 22.653 15.095 15.095 22.652-22.653 15.095 15.094-37.747 37.749 15.094 15.095 37.748-37.749 15.099 15.098-22.659 22.651 15.096 15.094 22.658-22.65 15.096 15.095-37.754 37.767 15.094 15.094 37.756-37.766 26.07 26.07v.041h.01l-75.491 75.473zm335.319 30.189-60.396-60.39 45.281-45.292h.021l60.376 60.389zm-14.886 15.305-46.248 47.535-7.725-7.724 46.208-47.576zm-37.958-37.948 15.21 15.205-46.225 47.553-15.188-15.188zm-61.323 32.449-7.352-7.354 46.237-47.527 7.306 7.304zm84.189 220.072c4.169 4.171 4.169 10.926 0 15.096-4.17 4.17-10.926 4.17-15.096 0-4.169-4.17-4.169-10.925 0-15.096 4.171-4.169 10.927-4.169 15.096 0z" fill="#ffffff" opacity="1" data-original="#000000" class=""></path></g></svg>