<svg id="Layer_2" enable-background="new 0 0 32 32" height="512" viewBox="0 0 32 32" width="512" xmlns="http://www.w3.org/2000/svg"><g><path d="m16 0c-8.8224 0-16 7.1776-16 16s7.1776 16 16 16 16-7.1776 16-16-7.1776-16-16-16zm0 29.86667c-7.64635 0-13.86667-6.22032-13.86667-13.86667s6.22032-13.86667 13.86667-13.86667 13.86667 6.22032 13.86667 13.86667-6.22032 13.86667-13.86667 13.86667z"/><path d="m21.58073 14.93333h-4.51406v-4.51406c0-.58906-.47761-1.06667-1.06667-1.06667s-1.06667.4776-1.06667 1.06667v4.51406h-4.51406c-.58906 0-1.06667.4776-1.06667 1.06667 0 .58906.4776 1.06667 1.06667 1.06667h4.51406v4.51406c0 .58906.4776 1.06667 1.06667 1.06667.58906 0 1.06667-.4776 1.06667-1.06667v-4.51406h4.51406c.58906 0 1.06667-.47761 1.06667-1.06667s-.47761-1.06667-1.06667-1.06667z"/></g></svg>