<svg id="Capa_1" enable-background="new 0 0 512 512" height="512" viewBox="0 0 512 512" width="512" xmlns="http://www.w3.org/2000/svg"><g><g><path d="m204.031 213.973c-4.306 0-7.796-3.487-7.796-7.789v-45.273c0-4.302 3.49-7.789 7.796-7.789s7.796 3.487 7.796 7.789v45.273c0 4.302-3.491 7.789-7.796 7.789z" fill="#9d9696"/></g><g><path d="m478.226 286.441c-1.526 0-3.068-.447-4.419-1.378-3.544-2.443-4.436-7.293-1.991-10.834l21.516-31.166c1.066-1.54 1.121-2.114 1.059-5.913-.012-.711-.024-1.459-.024-2.253v-18.15l-6.538.001c-4.306 0-7.796-3.487-7.796-7.789s3.49-7.789 7.796-7.789l7.135-.002c3.8-.021 8.126-.028 11.496 3.328 3.083 3.07 3.499 7.124 3.499 10.685v19.716c0 .705.011 1.368.021 1.999.075 4.565.152 9.286-3.82 15.022l-21.509 31.157c-1.513 2.19-3.948 3.366-6.425 3.366z" fill="#9d9696"/></g><g><path d="m440.006 286.441c-2.477 0-4.912-1.176-6.425-3.367l-21.516-31.166c-3.965-5.726-3.888-10.447-3.813-15.012.01-.631.021-1.294.021-1.999v-19.716c0-3.561.416-7.615 3.499-10.685 3.371-3.355 7.687-3.346 11.496-3.328l7.135.002c4.306 0 7.796 3.487 7.796 7.789s-3.49 7.789-7.796 7.789l-6.538-.001v18.15c0 .794-.012 1.542-.024 2.253-.062 3.8-.008 4.374 1.052 5.904l21.522 31.175c2.444 3.541 1.553 8.392-1.991 10.834-1.35.931-2.892 1.378-4.418 1.378z" fill="#9d9696"/></g><g><path clip-rule="evenodd" d="m465.518 92.533c0-51.115-41.766-92.533-93.275-92.533s-93.275 41.418-93.275 92.533c0 24.214 9.36 46.237 24.695 62.711l-7.712 23.571c-4.915 13.261 3.974 22.637 19.662 15.831l26.785-14.4c9.36 3.155 19.397 4.849 29.846 4.849 51.508.001 93.274-41.446 93.274-92.562z" fill="#80d261" fill-rule="evenodd"/></g><g><path clip-rule="evenodd" d="m454.098 336.017-3.268-21.41-23.546-5.199-45.004 44.66.706 17.467 19.367 15.831z" fill="#9d9696" fill-rule="evenodd"/></g><g><path clip-rule="evenodd" d="m405.473 394.347c-.765 11.041-6.181 20.651-14.216 27.047-7.241 5.813-16.6 8.996-26.608 8.324-4.798-.321-9.33-1.519-13.451-3.388l-17.66-34.554 17.66-34.554c5.622-2.57 11.979-3.826 18.631-3.388 21.104 1.403 37.087 19.541 35.644 40.513z" fill="#fdb440" fill-rule="evenodd"/></g><g><path clip-rule="evenodd" d="m405.473 394.347c-.765 11.041-6.181 20.651-14.216 27.047-7.241 5.813-16.6 8.996-26.608 8.324-.5-.029-1.03-.058-1.531-.117 3.238-1.373 6.24-3.184 8.948-5.345 8.035-6.426 13.451-16.036 14.216-27.077 1.383-20.446-13.775-38.205-34.143-40.366 5.386-2.307 11.42-3.417 17.69-2.979 21.104 1.403 37.087 19.541 35.644 40.513z" fill="#fe9737" fill-rule="evenodd"/></g><g><path d="m335.952 125.237c-4.306 0-7.796-3.487-7.796-7.789v-48.837c0-4.302 3.49-7.789 7.796-7.789s7.796 3.487 7.796 7.789v48.837c0 4.302-3.491 7.789-7.796 7.789z" fill="#eee1dc"/></g><g><path d="m377.6 125.237c-4.306 0-7.796-3.487-7.796-7.789v-48.837c0-4.302 3.49-7.789 7.796-7.789s7.796 3.487 7.796 7.789v48.837c0 4.302-3.49 7.789-7.796 7.789z" fill="#eee1dc"/></g><g><path d="m414.215 125.237c-4.306 0-7.796-3.487-7.796-7.789v-48.837c0-4.302 3.49-7.789 7.796-7.789s7.796 3.487 7.796 7.789v48.837c0 4.302-3.49 7.789-7.796 7.789z" fill="#eee1dc"/></g><g><path clip-rule="evenodd" d="m327.475 333.768h.118c-.03 0-.06 0-.118 0zm-123.562-127.7c-61.899 0-123.768 42.557-123.827 127.701v.117l123.694 24.084 123.93-24.084c0-.029 0-.058 0-.117-.059-85.115-61.928-127.701-123.797-127.701z" fill="#eee1dc" fill-rule="evenodd"/></g><g><path clip-rule="evenodd" d="m16.303 411.347v94.636c0 3.301 2.737 6.017 6.063 6.017h34.025l19.868-35.547-19.868-60.17c-4.121 1.869-6.063 2.892-13.451 3.388-7.416.497-19.396-2.541-26.637-8.324z" fill="#9d9696" fill-rule="evenodd"/></g><g><path clip-rule="evenodd" d="m2.087 394.406c.765 11.041 6.181 20.651 14.216 27.077 7.241 5.783 16.63 8.967 26.637 8.295 4.798-.321 9.33-1.49 13.451-3.388l17.631-34.554-17.631-34.525c-5.651-2.6-12.009-3.856-18.631-3.417-21.133 1.43-37.086 19.569-35.673 40.512z" fill="#fdb440" fill-rule="evenodd"/></g><g><path clip-rule="evenodd" d="m180.101 137.193c0 12.998 10.625 23.571 23.753 23.571s23.753-10.574 23.753-23.571c0-13.027-10.626-23.571-23.753-23.571s-23.753 10.544-23.753 23.571z" fill="#fd8087" fill-rule="evenodd"/></g><g><path clip-rule="evenodd" d="m56.392 357.311v69.079 85.61h294.806v-85.611-69.079c0-12.91-10.626-23.484-23.606-23.542h-247.506-.118c-12.98.059-23.576 10.632-23.576 23.543z" fill="#cdbeb9" fill-rule="evenodd"/></g><g><path clip-rule="evenodd" d="m327.475 333.768h.118c-.03 0-.06 0-.118 0zm-146.285-120.603c60.133 0 120.265 40.22 123.68 120.603h22.605.118.118c-.059-85.114-61.928-127.701-123.797-127.701-17.366 0-34.761 3.359-50.743 10.077 9.182-1.986 18.6-2.979 28.019-2.979z" fill="#cdbeb9" fill-rule="evenodd"/></g><g><path clip-rule="evenodd" d="m106.488 428.229v36.248c0 4.323 3.561 7.828 7.888 7.828h178.809c4.356 0 7.888-3.505 7.888-7.828v-36.248c0-4.294-3.532-7.828-7.888-7.828h-178.809c-4.327 0-7.888 3.535-7.888 7.828z" fill="#60b7ff" fill-rule="evenodd"/></g><g><path clip-rule="evenodd" d="m106.488 428.229v18.139c0-4.294 3.561-7.828 7.888-7.828h178.809c4.356 0 7.888 3.534 7.888 7.828v-18.139c0-4.294-3.532-7.828-7.888-7.828h-178.809c-4.327 0-7.888 3.535-7.888 7.828z" fill="#22a6fe" fill-rule="evenodd"/></g><g><path clip-rule="evenodd" d="m79.968 333.768c-12.98.058-23.576 10.632-23.576 23.542v24.886c0-6.338 2.561-12.092 6.681-16.357 4.297-4.381 10.302-7.127 16.895-7.156h.118 247.506c6.711.029 12.774 2.833 17.071 7.331 4.032 4.235 6.534 9.931 6.534 16.182v-24.886c0-12.881-10.537-23.396-23.488-23.542-7.594-.058-15.247 0-22.84 0h-224.783z" fill="#9d9696" fill-rule="evenodd"/></g><g><path d="m141.396 386.685h-34.908c-4.306 0-7.796-3.487-7.796-7.789s3.49-7.789 7.796-7.789h34.908c4.306 0 7.796 3.487 7.796 7.789s-3.491 7.789-7.796 7.789z" fill="#fd4755"/></g><g><path d="m301.073 386.685h-34.879c-4.306 0-7.796-3.487-7.796-7.789s3.49-7.789 7.796-7.789h34.879c4.306 0 7.796 3.487 7.796 7.789s-3.491 7.789-7.796 7.789z" fill="#fd4755"/></g><g><path clip-rule="evenodd" d="m16.303 421.482c7.241 5.783 16.63 8.967 26.637 8.295 4.798-.321 9.33-1.49 13.451-3.388v-44.193-24.827-.058c-3.591-1.665-7.476-2.775-11.567-3.242l-6.004 3.067v4.761 24.798c0 12.793 2.208 21.76-13.451 22.812-10.007.672-13.363.701-20.603-5.082-.235-.204-.5-.409-.736-.613-.029-.029-.059-.058-.118-.088 1.884 5.637 5.004 10.661 9.066 14.75 1.06 1.081 2.178 2.074 3.326 3.038v-.03z" fill="#fe9737" fill-rule="evenodd"/></g><g><path clip-rule="evenodd" d="m16.303 421.511v17.642c8.653 3.797 13.098 4.031 20.339 4.352 2.708.117 4.415 4.761 4.415 8.471v9.668 50.356h15.335v-85.436-.175c-4.121 1.899-8.653 3.067-13.451 3.388-10.007.672-19.397-2.512-26.637-8.295v.029z" fill="#746e6e" fill-rule="evenodd"/></g><g><path clip-rule="evenodd" d="m38.82 353.952v3.184l5.857-2.979.147-.088c-1.943-.234-3.974-.321-6.004-.234z" fill="#fe9737" fill-rule="evenodd"/></g><g><path d="m377.6 100.819h-41.648c-4.306 0-7.796-3.487-7.796-7.789s3.49-7.789 7.796-7.789h41.648c4.306 0 7.796 3.487 7.796 7.789s-3.49 7.789-7.796 7.789z" fill="#eee1dc"/></g><g><path clip-rule="evenodd" d="m491.36 304.413c0-10.574-5.18-19.92-13.127-25.762-5.357-3.914-11.95-6.221-19.102-6.221s-13.775 2.307-19.132 6.221c-7.947 5.842-13.098 15.189-13.098 25.762 0 1.694.118 3.359.383 4.995 2.149 13.67 13.039 24.477 26.814 26.609 1.648.263 3.326.38 5.033.38 17.777 0 32.229-14.312 32.229-31.984z" fill="#fdb440" fill-rule="evenodd"/></g><g><path clip-rule="evenodd" d="m491.36 304.413c0-10.574-5.18-19.92-13.127-25.762-5.357-3.914-11.95-6.221-19.102-6.221-3.885 0-7.594.672-11.038 1.928 2.943 1.051 5.651 2.512 8.094 4.294 7.976 5.842 13.127 15.189 13.127 25.762 0 3.096-.441 6.046-1.266 8.879-2.296 7.916-7.564 14.575-14.57 18.664-1.707.993-3.503 1.84-5.386 2.512 1.943.701 3.944 1.227 6.004 1.548 1.648.263 3.326.38 5.033.38 17.779 0 32.231-14.312 32.231-31.984z" fill="#fe9737" fill-rule="evenodd"/></g><g><path clip-rule="evenodd" d="m465.518 92.533c0-51.115-41.766-92.533-93.275-92.533-5.121 0-10.155.409-15.07 1.198 44.356 7.127 78.205 45.332 78.205 91.336 0 46.033-33.849 84.209-78.205 91.365 4.915.789 9.948 1.198 15.07 1.198 51.509-.001 93.275-41.448 93.275-92.564z" fill="#4fc122" fill-rule="evenodd"/></g><g><path clip-rule="evenodd" d="m227.607 137.193c0-6.455-2.59-12.268-6.829-16.532-4.297-4.235-10.213-6.864-16.748-6.864-3.65 0-7.093.789-10.155 2.249 8.006 3.768 13.569 11.888 13.569 21.293 0 9.376-5.504 17.467-13.481 21.264 3.002 1.373 6.358 2.161 9.89 2.161 13.128.001 23.754-10.573 23.754-23.571z" fill="#fd4755" fill-rule="evenodd"/></g><g><path clip-rule="evenodd" d="m137.069 280.229c0 12.531 10.243 22.724 22.899 22.724 12.627 0 22.87-10.194 22.87-22.724 0-12.56-10.243-22.724-22.87-22.724-12.656-.001-22.899 10.164-22.899 22.724z" fill="#60b7ff" fill-rule="evenodd"/></g><g><path clip-rule="evenodd" d="m223.839 280.229c0 12.531 10.243 22.724 22.899 22.724 12.627 0 22.87-10.194 22.87-22.724 0-12.56-10.243-22.724-22.87-22.724-12.656-.001-22.899 10.164-22.899 22.724z" fill="#60b7ff" fill-rule="evenodd"/></g><g><path clip-rule="evenodd" d="m162.706 280.229c0 8.967-5.239 16.707-12.833 20.388 3.061 1.49 6.475 2.337 10.096 2.337 12.627 0 22.87-10.194 22.87-22.724 0-12.56-10.243-22.724-22.87-22.724-3.62 0-7.035.847-10.096 2.307 7.594 3.708 12.833 11.449 12.833 20.416z" fill="#22a6fe" fill-rule="evenodd"/></g><g><path clip-rule="evenodd" d="m249.476 280.345c0 8.938-5.239 16.707-12.833 20.388 3.061 1.49 6.475 2.308 10.096 2.308 12.627 0 22.87-10.165 22.87-22.695 0-12.56-10.243-22.724-22.87-22.724-3.62 0-7.035.818-10.096 2.307 7.594 3.709 12.833 11.449 12.833 20.416z" fill="#22a6fe" fill-rule="evenodd"/></g></g></svg>